<?xml version="1.0" encoding="UTF-8" standalone="no"?>
<!-- Created with Inkscape (http://www.inkscape.org/) -->

<svg
   version="1.1"
   id="svg1"
   width="2122"
   height="2197"
   viewBox="0 0 2122 2197"
   xmlns="http://www.w3.org/2000/svg"
   xmlns:svg="http://www.w3.org/2000/svg">
  <defs
     id="defs1" />
  <g
     id="g1">
    <path
       style="fill:#03171e;fill-opacity:1"
       d="m 1027.8296,2190.4962 c -0.2771,-0.277 -7.4396,-0.7149 -15.9167,-0.9731 -21.28784,-0.6483 -33.27609,-1.4255 -40.9129,-2.6525 -3.575,-0.5743 -11.225,-1.3967 -17,-1.8275 -5.775,-0.4307 -14.1,-1.3043 -18.5,-1.9413 -4.4,-0.637 -15.875,-2.2851 -25.5,-3.6625 -9.625,-1.3774 -20.425,-3.1097 -24,-3.8495 -3.575,-0.7398 -12.35,-2.5476 -19.5,-4.0175 -12.75841,-2.6227 -17.99713,-3.8445 -30,-6.9966 -3.3,-0.8666 -9.15,-2.2575 -13,-3.0909 -9.49889,-2.0561 -24.85427,-6.5945 -55,-16.2555 -24.53745,-7.8638 -69.77332,-24.7685 -73,-27.2802 -0.55,-0.4282 -3.925,-1.9028 -7.5,-3.2771 -3.575,-1.3742 -8.86029,-3.6626 -11.7451,-5.0853 -2.8848,-1.4227 -5.45327,-2.5867 -5.7077,-2.5867 -0.25444,0 -13.41915,-6.3567 -29.25491,-14.126 -27.17294,-13.3315 -46.51097,-23.8008 -47.79222,-25.8739 -0.31467,-0.5091 0.50078,-2.6299 1.8121,-4.7129 1.31133,-2.083 3.27913,-5.8122 4.3729,-8.2872 2.43721,-5.5149 7.55117,-14.4645 17.99969,-31.5 6.99168,-11.3994 24.69388,-41.1316 42.76447,-71.8263 3.18172,-5.4045 6.48304,-10.0942 7.33627,-10.4216 0.85324,-0.3274 2.93805,0.2081 4.63292,1.1901 14.57531,8.445 74.59351,37.1606 92.08158,44.0562 3.3,1.3012 8.36029,3.5214 11.2451,4.9337 2.8848,1.4123 5.70757,2.5679 6.27281,2.5679 0.56525,0 4.27996,1.3029 8.25491,2.8954 14.35328,5.7504 31.7455,11.5195 59.22718,19.646 4.95,1.4638 10.575,3.1398 12.5,3.7246 1.925,0.5847 6.2,1.6172 9.5,2.2945 3.3,0.6772 12.075,2.6584 19.5,4.4026 12.87555,3.0246 30.47221,6.1192 54.5,9.5846 6.05,0.8725 15.725,2.4125 21.5,3.4222 5.775,1.0097 12.075,1.7974 14,1.7505 3.21926,-0.078 15.31903,0.9007 22.5,1.8208 1.65,0.2115 11.4645,0.6162 21.81,0.8995 10.3455,0.2832 20.5688,1.0419 22.7183,1.6859 2.7891,0.8357 4.278,0.8641 5.1995,0.099 0.81,-0.6722 7.8117,-1.0718 18.7818,-1.072 9.6197,-1e-4 20.8654,-0.224 24.9904,-0.4974 4.125,-0.2735 12.9,-0.79 19.5,-1.1479 15.908,-0.8627 40.6255,-3.2034 46.9384,-4.445 2.7839,-0.5476 10.4616,-1.7174 17.0616,-2.5997 19.5822,-2.6178 47.5243,-7.5317 62.5,-10.9913 4.125,-0.9529 9.975,-2.3043 13,-3.003 3.025,-0.6988 7.975,-1.9527 11,-2.7865 3.025,-0.8338 11.35,-3.1051 18.5,-5.0472 19.9617,-5.422 58.8761,-18.4995 74,-24.8682 3.3,-1.3896 7.125,-2.8688 8.5,-3.2871 6.007,-1.8274 38.8372,-16.398 53.1827,-23.6035 8.6255,-4.3324 16.1186,-7.8771 16.6513,-7.8771 0.5326,0 1.8554,1.4625 2.9394,3.25 1.084,1.7875 5.0005,8.2 8.7033,14.25 3.7028,6.05 8.0457,13.475 9.6509,16.5 1.6051,3.025 3.8639,7.075 5.0194,9 2.8653,4.7733 17.2874,30.8917 21.8112,39.5 2.0232,3.85 5.7264,10.375 8.2292,14.5 7.9293,13.0683 15.889,28.363 15.5917,29.9594 -0.1578,0.8473 -6.8102,5.0206 -14.783,9.2738 -21.0994,11.256 -44.8139,21.7536 -76.4961,33.8624 -7.15,2.7326 -14.575,5.6152 -16.5,6.4057 -13.041,5.3551 -47.0612,16.4066 -70.5,22.9021 -7.15,1.9814 -14.4269,4.0675 -16.1709,4.6357 -3.2578,1.0615 -25.6901,6.4545 -32.8291,7.8925 -2.2,0.4432 -6.025,1.3243 -8.5,1.958 -2.475,0.6336 -10.35,2.3196 -17.5,3.7466 -24.1771,4.8252 -29.7301,5.7831 -48.5,8.3664 -8.525,1.1733 -19.7946,2.7777 -25.0437,3.5653 -5.249,0.7877 -11.549,1.4431 -14,1.4565 -2.4509,0.014 -6.2563,0.4385 -8.4563,0.9445 -4.6807,1.0766 -24.1289,2.7969 -40.5,3.5825 -19.7448,0.9474 -77.2131,1.2485 -82.9916,0.4348 -3.081,-0.4338 -5.927,-0.3813 -6.4584,0.1191 -1.0682,1.006 -1.975,1.1363 -2.7204,0.3909 z M 1729.5,2164.8887 c -2.75,-0.3924 -7.475,-0.7607 -10.5,-0.8185 -17.457,-0.3331 -35.3943,-8.5745 -50.0561,-22.9984 -10.9167,-10.7396 -14.3688,-16.6643 -46.9459,-80.5718 -6.7287,-13.2 -13.7126,-26.7 -15.5197,-30 -6.6666,-12.1738 -35.7729,-68.1987 -52.2123,-100.5 -7.6866,-15.1033 -13.6735,-26.5542 -22.2205,-42.5 -3.5376,-6.6 -7.3853,-13.8 -8.5504,-16 -1.1651,-2.2 -3.9466,-7.375 -6.1811,-11.5 -7.828,-14.4505 -28.1212,-53.7065 -39.2879,-76 -6.1986,-12.375 -11.6119,-22.95 -12.0295,-23.5 -0.4177,-0.55 -6.7211,-12.7 -14.0077,-27 -7.2865,-14.3 -13.5865,-26.45 -13.9998,-27 -0.4134,-0.55 -4.0407,-7.3 -8.0608,-15 -4.02,-7.7 -10.1612,-19.4 -13.647,-26 -3.4858,-6.6 -9.9474,-19.3242 -14.3592,-28.2759 -8.0214,-16.2759 -8.0214,-16.2759 -6.0631,-19.0261 2.0768,-2.9165 19.5512,-19.3247 24.173,-22.698 4.9706,-3.6279 17.3438,-13.8329 24.968,-20.5929 4.125,-3.6574 10.4549,-9.0702 14.0664,-12.0285 3.6116,-2.9582 9.4616,-7.9117 13,-11.0078 10.3386,-9.0459 23.8015,-20.6306 36.4571,-31.3708 6.4808,-5.5 14.3161,-12.25 17.4118,-15 3.0956,-2.75 8.0607,-7.025 11.0335,-9.5 2.9728,-2.475 10.4177,-8.775 16.5442,-14 6.1265,-5.225 17.572,-14.9 25.4343,-21.5 7.8623,-6.6 16.8744,-14.3583 20.027,-17.2406 3.1526,-2.8823 7.0356,-6.2528 8.6288,-7.49 1.5933,-1.2372 7.6698,-6.3039 13.5032,-11.2594 21.3864,-18.1675 37.7428,-31.7313 43.0023,-35.6603 2.9653,-2.2151 6.3656,-4.9299 7.5563,-6.033 4.263,-3.949 6.8649,-1.2828 16.3834,16.7881 2.8667,5.4424 6.4887,12.1741 8.049,14.9593 1.5602,2.7853 4.3417,7.9603 6.1811,11.5 1.8394,3.5398 8.6042,15.5612 15.033,26.7144 6.4287,11.1532 11.6886,20.5546 11.6886,20.892 0,0.3373 1.8,3.4635 4,6.9469 2.2,3.4835 4,6.6251 4,6.9814 0,0.3564 2.025,3.9834 4.5,8.06 2.475,4.0767 4.5,7.5991 4.5,7.8277 0,0.2285 6.1494,11.125 13.6652,24.2145 7.5159,13.0894 16.3152,28.6835 19.5539,34.6535 3.2388,5.9699 10.0626,18.1199 15.164,27 5.1014,8.88 11.4632,20.1955 14.1374,25.1455 2.6742,4.95 6.576,11.8204 8.6708,15.2676 2.0948,3.4472 3.8087,6.4415 3.8087,6.6539 0,0.2125 1.6376,3.2421 3.6392,6.7324 6.5541,11.4292 15.3608,27.19 15.3608,27.4905 0,0.1618 2.1738,4.0205 4.8306,8.5749 4.5413,7.7846 9.2269,16.2782 16.705,30.2807 1.7624,3.3 5.5721,10.275 8.466,15.5 2.894,5.225 7.0791,12.875 9.3004,17 5.9867,11.1179 12.58,23.0318 20.1995,36.5 10.7162,18.9421 20.7944,37.0303 27.5799,49.5 3.4417,6.325 9.3814,16.9 13.1992,23.5 8.6375,14.9319 21.7194,38.421 21.7194,38.9981 0,0.4417 12.7386,22.2515 20.6056,35.2788 2.4169,4.0024 4.3944,7.4527 4.3944,7.6674 0,0.3987 8.249,14.8369 10.0301,17.5557 0.5404,0.825 1.2839,2.1432 1.6521,2.9294 0.3682,0.7862 6.2153,11.0716 12.9936,22.8565 6.7783,11.7848 12.3242,21.5889 12.3242,21.7868 0,0.1978 3.2238,5.8874 7.164,12.6435 3.9402,6.7561 9.6342,16.5588 12.6533,21.7838 3.019,5.225 6.7329,11.525 8.253,14 1.5201,2.475 5.4797,9.8016 8.7992,16.2814 5.2745,10.2961 7.0288,14.8856 11.1685,29.2186 2.1722,7.5206 2.183,13.1626 0.041,21.5918 -6.9156,27.2204 -23.6166,41.6282 -53.7487,46.3685 -4.8569,0.764 -14.9058,1.4243 -22.3308,1.4673 -49.1773,0.2844 -139.811,1.0866 -180,1.5932 -26.125,0.3293 -54.25,0.6308 -62.5,0.67 -8.25,0.039 -15.9,0.3728 -17,0.7413 -1.1,0.3686 -4.25,0.349 -7,-0.043 z M 75.724871,2142.3915 c -0.390585,-0.3905 -4.730112,-0.7992 -9.643393,-0.9082 -8.313242,-0.1843 -9.495379,-0.4853 -17.032864,-4.3376 -18.249982,-9.3271 -27.542816,-20.1446 -33.199005,-38.6457 -1.108532,-3.6259 -1.837353,-9.1045 -1.84197,-13.8461 -0.01411,-14.4969 3.910921,-23.7654 24.492361,-57.8361 2.75,-4.5523 5.45,-9.0443 6,-9.9822 0.55,-0.9379 3.156778,-5.2221 5.792841,-9.5205 2.636062,-4.2983 5.320681,-8.7151 5.965819,-9.8151 0.645138,-1.1 3.493335,-5.825 6.329328,-10.5 2.835993,-4.675 5.727923,-9.625 6.426511,-11 0.698588,-1.375 2.708297,-4.75 4.466019,-7.5 3.703214,-5.7938 17.403732,-29.3127 21.812276,-37.4439 1.65682,-3.0558 3.780164,-6.6811 4.718546,-8.0561 0.93837,-1.375 6.21544,-10.375 11.7268,-20 5.51137,-9.625 12.69996,-22 15.97464,-27.5 9.08805,-15.2638 17.09919,-28.9184 18.53555,-31.5928 0.71105,-1.324 2.46851,-4.2072 3.90547,-6.4072 1.43697,-2.2 6.5662,-10.75 11.3983,-19 4.83211,-8.25 11.40965,-19.3776 14.61677,-24.7281 3.20712,-5.3505 5.83113,-10.033 5.83113,-10.4056 0,-0.3726 1.0583,-2.07 2.35179,-3.7719 1.29348,-1.7019 3.15234,-4.6694 4.13079,-6.5944 1.81059,-3.5621 21.68325,-37.7392 39.8301,-68.5 5.51589,-9.35 11.5952,-19.7 13.50958,-23 1.91438,-3.3 4.82708,-8.25 6.47267,-11 1.64559,-2.75 4.3531,-7.475 6.01668,-10.5 1.66359,-3.025 4.12119,-7.2533 5.46134,-9.3961 1.34015,-2.1429 4.90778,-8.2179 7.92807,-13.5 3.02028,-5.2822 6.51339,-11.1789 7.76246,-13.1039 3.60621,-5.5577 18.53652,-30.9516 18.53652,-31.5274 0,-0.2869 1.72951,-3.3231 3.84336,-6.7471 2.11385,-3.424 4.98757,-8.2505 6.38606,-10.7255 1.39848,-2.475 3.43625,-6.075 4.52837,-8 11.00778,-19.4025 13.46397,-23.7046 14.27329,-25 3.7065,-5.9327 22.28544,-38.1164 29.44118,-51 5.50554,-9.9125 17.47745,-30.7284 19.55449,-34 0.52377,-0.825 1.91336,-3.3 3.08799,-5.5 1.17462,-2.2 5.98842,-10.525 10.69732,-18.5 8.36634,-14.1692 12.84989,-21.9055 17.96605,-31 10.12419,-17.9968 22.51282,-39.2669 35.66197,-61.2282 6.01704,-10.0495 12.54204,-21.1403 14.5,-24.6462 1.95796,-3.5059 4.49436,-8.0059 5.63645,-10 1.14209,-1.9941 4.11089,-7.2256 6.59733,-11.6256 9.71193,-17.1862 19.94514,-34.8211 33.21434,-57.2384 5.28649,-8.9311 9.6118,-16.5 9.6118,-16.8198 0,-0.3198 1.35,-2.5436 3,-4.9418 1.65,-2.3982 3,-4.6061 3,-4.9065 0,-0.3005 2.76151,-5.1694 6.13668,-10.8199 3.37517,-5.6505 9.07062,-15.4486 12.65656,-21.7736 3.58593,-6.325 9.8139,-17.0067 13.83993,-23.7371 4.02603,-6.7304 8.47228,-14.3804 9.88057,-17 1.40828,-2.6196 3.50594,-6.3379 4.66147,-8.2629 1.15553,-1.925 3.7639,-6.425 5.79638,-10 4.16959,-7.334 12.4657,-21.5131 29.25488,-50 6.32093,-10.725 12.74576,-21.75 14.27741,-24.5 1.53164,-2.75 3.77458,-6.575 4.98432,-8.5 1.20973,-1.925 4.00411,-6.65 6.20973,-10.5 6.67638,-11.6539 18.50643,-31.77929 20.86753,-35.5 1.22156,-1.925 3.28157,-5.36622 4.57778,-7.64716 1.29622,-2.28095 6.22063,-10.60595 10.94314,-18.5 9.39612,-15.7064 13.10983,-21.94668 16.91362,-28.42058 2.38006,-4.05077 8.20037,-13.7418 34.1928,-56.93226 6.28891,-10.45 13.8425,-23.275 16.78577,-28.5 2.94326,-5.225 6.78625,-11.75 8.53998,-14.5 4.02268,-6.30795 25.15703,-41.67957 38.23964,-64 5.48029,-9.35 15.11472,-25.55 21.40985,-36 14.08262,-23.37734 31.08756,-51.88758 40.85684,-68.5 13.09215,-22.26287 19.12006,-32.38065 22.93731,-38.5 2.05854,-3.3 6.91013,-11.4 10.7813,-18 6.59978,-11.25201 8.00555,-13.6988 13.35799,-23.25 1.15581,-2.0625 2.67838,-4.425 3.38349,-5.25 0.7051,-0.825 2.29228,-3.50795 3.52705,-5.96211 1.23478,-2.45416 6.96894,-12.35416 12.74258,-22 5.77364,-9.64584 12.40023,-20.91289 14.72576,-25.03789 5.03451,-8.93018 16.10174,-27.45767 18.54674,-31.04886 0.95445,-1.40188 2.93051,-4.77688 4.39126,-7.5 2.96481,-5.52703 5.3752,-9.5756 10.09217,-16.95114 1.75874,-2.75 3.82585,-6.21602 4.59359,-7.70226 15.33826,-29.69308 35.52321,-56.30132 50.55068,-66.63704 21.5589,-14.82796 40.6361,-21.36289 62.3452,-21.35654 20.622,0.006 31.3362,2.52839 48.8015,11.48897 13.3532,6.85089 29.0447,21.74961 38.66,36.70687 2.6518,4.125 5.8366,9.075 7.0774,11 2.3965,3.71812 9.4603,17.12329 18.97,36 3.1864,6.325 8.3699,16.225 11.5189,22 5.4761,10.0428 23.8343,44.17911 32.2674,60 4.77,8.94865 15.9838,29.35781 23.901,43.5 1.5396,2.75 4.3784,7.925 6.3084,11.5 1.9301,3.575 3.9592,7.175 4.5092,8 1.313,1.96952 11.1161,19.49432 16.2221,29 2.2158,4.125 5.1592,9.525 6.5408,12 1.3816,2.475 7.4462,13.725 13.4767,25 6.0306,11.275 12.2354,22.75201 13.7886,25.50446 1.5531,2.75246 4.817,8.82746 7.2531,13.5 2.4361,4.67255 9.2652,17.49554 15.176,28.49554 5.9107,11 13.4578,25.175 16.7713,31.5 3.3135,6.325 8.0721,15.1 10.5745,19.5 2.5024,4.4 5.9774,10.7 7.7221,14 1.7448,3.3 4.3022,8.025 5.6831,10.5 3.1334,5.61586 14.0235,25.71982 20.0425,37 3.8943,7.29832 9.4749,17.53976 30.5146,56 1.9557,3.575 4.4436,8.29651 5.5287,10.49225 1.0851,2.19574 2.9561,5.57074 4.1578,7.5 1.2018,1.92926 4.0072,6.88275 6.2343,11.00775 2.2271,4.125 6.6433,12.225 9.8138,18 3.1705,5.775 6.7524,12.3 7.9597,14.5 1.2073,2.2 5.7944,10.525 10.1935,18.5 4.399,7.975 12.4094,22.825 17.8008,33 5.3914,10.175 11.4719,21.65 13.5121,25.5 7.2224,13.6287 11.3172,21.0183 12.4682,22.5 0.6409,0.825 1.742,2.85 2.4469,4.5 0.705,1.65 5.9029,11.325 11.551,21.5 11.4985,20.7145 20.7524,37.53 25.5899,46.5 1.7797,3.3 4.7102,8.475 6.5123,11.5 6.1251,10.2816 21.4373,41.4903 21.4446,43.7074 0,1.3653 -1.3803,3.2726 -3.6301,5 -2.0005,1.5359 -12.463,10.4435 -23.25,19.7946 -10.787,9.3511 -22.0768,19.0261 -25.0884,21.5 -3.0117,2.4739 -14.2617,12.1071 -25,21.407 -18.7852,16.269 -24.2483,21.0541 -55.4758,48.591 -7.7964,6.875 -19.9505,17.45 -27.0092,23.5 -7.0587,6.05 -16.9975,14.6 -22.0863,19 -5.0888,4.4 -14.9908,12.95 -22.0045,19 -7.0137,6.05 -15.4963,13.5226 -18.8503,16.6057 -6.6256,6.0905 -20.7068,18.4458 -30.0815,26.3943 -3.2435,2.75 -6.6138,5.675 -7.4897,6.5 -0.8759,0.825 -6.9778,5.985 -13.5598,11.4667 -6.582,5.4817 -17.2621,14.8095 -23.7336,20.7285 -6.4715,5.919 -15.0986,13.584 -19.1713,17.0333 -7.268,6.1555 -41.166,35.3335 -47.0623,40.5092 -18.1963,15.9726 -30.7898,27.1277 -45.3786,40.1955 -15.4667,13.8542 -22.7568,20.2726 -31.1425,27.4185 -7.6061,6.4816 -25.0378,21.5462 -36.3319,31.3983 -7.0931,6.1875 -13.2492,11.25 -13.6801,11.25 -1.8906,0 -12.7489,-10.1477 -29.0569,-27.1553 -25.1676,-26.2474 -56.3129,-59.1153 -71.40865,-75.3582 -25.43729,-27.3704 -46.71963,-48.1274 -52.00135,-50.7177 -8.32083,-4.0807 -14.2441,-5.2716 -26,-5.2274 -8.50737,0.032 -12.6426,0.5514 -18.24883,2.292 -27.30838,8.4786 -43.44327,32.0384 -41.88988,61.1666 0.27865,5.225 1.20278,11.75 2.05364,14.5 2.52288,8.1541 11.67641,18.9886 41.69141,49.3478 31.17361,31.5311 78.26339,80.0914 89.84644,92.6522 18.81702,20.4055 85.66232,86.4884 87.24772,86.2528 0.9353,-0.1391 9.9642,-8.3528 20.0642,-18.2528 19.4994,-19.1131 50.9926,-49.312 66.7353,-63.9924 5.225,-4.8725 15.125,-14.3177 22,-20.9893 6.875,-6.6717 16.325,-15.6894 21,-20.0394 4.675,-4.35 18.4,-17.6547 30.5,-29.566 28.7949,-28.3459 36.2302,-34.5961 48.2748,-40.5808 C 1289.5,1585.5 1289.5,1585.5 1302,1585.5 c 12.5,0 12.5,0 21.2572,4.3589 15.6086,7.7692 25.4639,20.8289 29.1429,38.6185 2.7574,13.3337 1.5237,23.4134 -4.372,35.7188 -3.9946,8.3374 -8.5102,12.9693 -36.5823,37.5239 -4.4299,3.8748 -11.6299,10.5178 -16,14.7622 -9.3928,9.1224 -27.3493,26.2545 -83.408,79.5783 -22.8042,21.6917 -43.5042,41.4024 -46,43.8016 -49.0122,47.1159 -55.8853,52.7639 -73.6998,60.564 -23.8431,10.4398 -50.237,8.0182 -69.3801,-6.3657 -6.3742,-4.7894 -16.1494,-14.2695 -26.4579,-25.6592 -4.4,-4.8614 -25.12938,-26.178 -46.0653,-47.3701 -43.67077,-44.2053 -69.16879,-70.1969 -78.30504,-79.8208 -3.50368,-3.6907 -14.32811,-14.8104 -24.05427,-24.7104 -9.72616,-9.9 -21.90304,-22.5 -27.05973,-28 -17.95486,-19.1502 -41.54249,-42.7116 -45.51566,-45.4651 -3.51191,-2.4338 -5.2895,-2.8593 -14.56781,-3.4873 -12.06746,-0.8167 -32.39431,-0.983 -33.61382,-0.275 -0.4501,0.2613 -3.95315,0.088 -7.78455,-0.3861 -3.8314,-0.4736 -8.3314,-0.508 -10,-0.076 -1.6686,0.4316 -5.05882,0.4885 -7.53382,0.1264 -2.475,-0.3621 -5.05075,-0.4524 -5.72389,-0.2005 -1.79197,0.6704 -6.53984,8.7071 -15.81128,26.7639 -4.51845,8.8 -10.8015,20.95 -13.96232,27 -3.16082,6.05 -9.80196,18.875 -14.75808,28.5 -4.95613,9.625 -11.59351,22.225 -14.74973,28 -3.15621,5.775 -8.20815,15.225 -11.22653,21 -7.83029,14.9816 -15.38617,29.3196 -20.02527,38 -3.98874,7.4635 -9.15663,17.3583 -23.50258,45 -4.139,7.975 -9.80294,18.775 -12.58653,24 -8.47429,15.9069 -11.09556,20.9055 -19.14054,36.5 -4.25605,8.25 -9.43492,18.15 -11.5086,22 -2.07368,3.85 -6.35573,11.95 -9.51568,18 -6.82339,13.064 -10.51711,20.077 -30.02158,57 -8.13501,15.4 -17.67032,33.625 -21.18957,40.5 -16.95393,33.1201 -20.86433,40.0154 -27.81863,49.053 -14.74789,19.166 -31.79493,30.4579 -53.95919,35.7422 -16.00266,3.8153 -18.14242,4.1731 -28.14576,4.707 -10.08386,0.5382 -140.83847,1.5823 -181.35424,1.4481 -12.375,-0.041 -23.85,-8e-4 -25.5,0.089 -1.65,0.09 -5.025,0.1559 -7.5,0.1464 -2.475,-0.01 -6.75,0 -9.5,0.032 -2.75,0.027 -6.8,0 -9,-0.052 -3.84166,-0.098 -8.41673,-0.071 -17,0.099 -2.2,0.044 -5.125,-0.01 -6.5,-0.1165 -1.375,-0.1076 -9.93962,0.063 -19.032487,0.3789 -9.092868,0.3161 -16.852057,0.2551 -17.242642,-0.1355 z M 852.37265,1355.4809 c 7.58298,-0.3335 12.32928,-0.1432 13.13647,0.5267 0.88397,0.7336 3.37337,0.7005 8.28251,-0.1103 5.18999,-0.8571 7.85074,-0.869 10.2122,-0.046 2.13753,0.7451 3.80047,0.7884 5.0291,0.1309 2.54105,-1.36 12.31431,-1.2352 13.72469,0.1752 0.8671,0.8671 1.50213,0.8717 2.53039,0.018 0.96605,-0.8017 9.50103,-1.0841 28.80697,-0.9531 15.08881,0.1024 27.99014,-0.1574 28.66961,-0.5773 0.67948,-0.4199 1.5897,-0.5446 2.02272,-0.277 1.23141,0.7611 10.49953,0.7996 40.71269,0.169 15.4,-0.3214 67.15,-0.7827 115,-1.0252 108.347,-0.5489 141.8556,-0.996 143.3388,-1.9127 0.6387,-0.3947 1.1612,-1.5055 1.1612,-2.4685 0,-1.6567 -13.4026,-28.8007 -24.9995,-50.6311 -2.9218,-5.5 -9.7895,-18.775 -15.2617,-29.5 -17.0949,-33.5049 -28.9768,-56.4601 -29.7626,-57.5 -0.8525,-1.1281 -13.4495,-25.6028 -34.4845,-67 -14.4466,-28.4311 -20.9747,-40.9975 -25.9743,-50 -6.4722,-11.654 -20.7675,-39.0298 -35.2476,-67.5 -8.5319,-16.775 -15.85,-30.95 -16.2624,-31.5 -0.4124,-0.55 -6.2595,-11.8 -12.9936,-25 -14.4946,-28.41182 -20.1781,-38.52497 -21.4424,-38.15367 -1.1193,0.32873 -1.3566,0.7509 -6.8329,12.15367 -3.7318,7.7704 -10.7714,21.20481 -26.7236,51 -2.0613,3.85 -8.5931,16.45 -14.5152,28 -5.922,11.55 -13.12331,25.5 -16.00286,31 -2.87955,5.5 -8.5043,16.3 -12.49944,24 -3.99514,7.7 -12.32138,23.675 -18.50275,35.5 -6.18138,11.825 -14.27244,27.35 -17.98015,34.5 -3.70771,7.15 -8.432,16.15 -10.49842,20 -6.29817,11.7342 -14.73375,27.9493 -26.27165,50.5 -10.53247,20.5856 -25.77022,50.1694 -29.10148,56.5 -8.05261,15.3029 -17.46627,33.0041 -19.94277,37.5 -6.22724,11.305 -17.99381,34.6279 -19.23933,38.135 -1.7293,4.8692 -0.41419,6.1567 5.53915,5.4228 2.475,-0.3051 9.84269,-0.7897 16.37265,-1.0769 z M 2038.432,1725.2313 c -0.5874,-0.4022 -5.2001,-6.1313 -10.2506,-12.7313 -5.0504,-6.6 -11.7698,-15.2208 -14.932,-19.1572 -3.1622,-3.9365 -12.3555,-15.6365 -20.4297,-26 -25.7298,-33.0253 -47.2417,-59.8675 -48.7027,-60.7705 -0.5469,-0.338 -2.3945,-3.0616 -4.1056,-6.0524 -3.1113,-5.4379 -3.1113,-5.4379 -1.4935,-12.7289 0.8898,-4.0101 2.0219,-9.1937 2.5157,-11.5192 0.4938,-2.3255 1.5753,-6.6005 2.4034,-9.5 0.828,-2.8995 3.0952,-13.227 5.0381,-22.9501 1.943,-9.7231 3.7508,-18.2731 4.0174,-19 0.6095,-1.6617 6.3338,-39.5955 7.5936,-50.3217 0.5168,-4.4 1.1818,-8.659 1.4777,-9.4645 0.5826,-1.5859 2.7656,-28.321 4.5345,-55.5355 1.5938,-24.5196 0.6468,-107.8294 -1.489,-131 -1.6855,-18.2853 -3.5732,-33.1691 -6.1511,-48.5 -0.7861,-4.675 -2.128,-13.225 -2.982,-19 -0.854,-5.775 -2.1846,-13.2 -2.957,-16.5 -1.6153,-6.9012 -4.0765,-19.1645 -5.0174,-25 -0.3547,-2.2 -2.842,-12.775 -5.5273,-23.5 -7.0412,-28.1227 -8.6026,-33.9596 -10.4329,-39 -0.8988,-2.475 -2.258,-6.7681 -3.0205,-9.5403 -0.7625,-2.7721 -2.1156,-7.0471 -3.0069,-9.5 -0.8913,-2.4528 -2.5226,-7.1597 -3.6252,-10.4597 -1.864,-5.5787 -3.6231,-10.3146 -12.6286,-34 -1.882,-4.95 -4.2957,-10.9292 -5.3637,-13.287 -1.068,-2.3579 -2.9994,-7.0829 -4.292,-10.5 -1.2926,-3.4172 -3.2736,-8.013 -4.4021,-10.213 -1.1286,-2.2 -3.2082,-6.7927 -4.6215,-10.20611 -3.539,-8.54761 -13.3761,-29.04789 -26.465,-55.15212 -4.6497,-9.27347 -18.5823,-33.87695 -23.581,-41.64177 -1.7704,-2.75 -4.4093,-7.025 -5.8642,-9.5 -11.2062,-19.06224 -35.345,-54.99719 -49.0369,-73 -37.2073,-48.92203 -72.2184,-87.26259 -119.2519,-130.59251 -19.5745,-18.03306 -22.5356,-21.1711 -25.75,-27.28811 -1.9977,-3.80152 -3.6321,-7.44506 -3.6321,-8.09677 0,-0.65171 -2.5179,-7.56091 -5.5954,-15.35377 -6.6191,-16.76117 -17.0827,-38.05895 -26.8588,-54.66884 -8.7052,-14.79028 -10.7235,-18.32113 -16.5769,-29 -7.9481,-14.5004 -9.0722,-16.51023 -14.1555,-25.30945 -7.8514,-13.59089 -12.811,-24.19625 -12.9496,-27.69055 -0.1568,-3.95617 3.0685,-9.89204 14.9424,-27.5 9.2632,-13.73647 9.9457,-14.5 12.9606,-14.5 6.1612,0 52.5489,25.99945 78.5291,44.01412 32.6777,22.65865 46.4934,32.77253 59.7041,43.70656 4.125,3.41412 12.225,10.0952 18,14.84684 14.8045,12.18111 40.7303,36.11747 56.9118,52.54475 57.4602,58.33279 82.6718,87.89791 113.0454,132.56569 5.5316,8.13494 14.7739,21.5753 20.3418,29.58176 2.5856,3.71784 4.701,7.06384 4.701,7.43554 0,0.37171 0.8249,1.60484 1.8332,2.74029 3.7022,4.16912 20.7883,31.97986 30.1438,49.06445 1.5059,2.75 4.9877,9.05 7.7374,14 7.0839,12.75248 23.8707,44.60859 29.9087,56.75748 4.5004,9.05512 13.9995,29.9609 20.33,44.74252 2.9262,6.83268 15.0573,37.56301 20.1327,51 1.1426,3.025 2.7019,7.075 3.4651,9 5.6077,14.1443 20.8971,61.6316 23.0206,71.5 0.355,1.65 1.7003,6.6 2.9893,11 2.0336,6.9409 5.4136,20.678 9.9652,40.5 2.7264,11.8737 4.646,21.0368 7.018,33.5 1.3607,7.15 2.9136,15.025 3.4507,17.5 1.1114,5.1204 3.6084,22.5556 4.5114,31.5 0.3332,3.3 1.2407,10.95 2.0167,17 5.3433,41.6583 7.3879,87.6129 6.0954,137 -1.3567,51.8406 -1.7673,61.2889 -2.8026,64.4894 -0.6208,1.9192 -1.4409,8.6692 -1.8223,15 -0.908,15.0684 -6.1169,57.4233 -7.9952,65.0106 -0.4766,1.925 -1.6046,7.55 -2.5067,12.5 -6.3887,35.0537 -11.2511,56.9273 -17.1168,77 -1.4465,4.95 -3.4903,12.6 -4.5418,17 -3.4302,14.3539 -17.689,58.7249 -23.7802,74 -1.5353,3.85 -4.5051,11.4108 -6.5996,16.8017 -4.2475,10.9325 -5.4624,12.9969 -7.021,11.9296 z M 57.015407,1676.5186 C 52.358061,1670.9068 32.339911,1602.2632 29.451488,1582 c -0.576432,-4.0438 -1.820109,-9.6181 -4.462192,-20 -0.489894,-1.925 -1.822079,-9.575 -2.960411,-17 -1.138332,-7.425 -2.736421,-17.325 -3.551309,-22 -6.105946,-35.0297 -10.7125038,-102.9861 -10.5069815,-155 0.1015076,-25.6897 0.320316,-31.7277 1.9316888,-53.3052 0.4848777,-6.4929 0.6752727,-12.5942 0.4230997,-13.5585 -0.5350323,-2.046 3.451226,-39.2239 6.608712,-61.6363 0.464908,-3.3 2.045276,-14.55 3.511928,-25 2.4754,-17.6374 3.444258,-23.1787 7.081076,-40.5 0.750617,-3.575 1.646451,-8.75 1.990742,-11.5 0.970789,-7.7541 4.458591,-22.1576 19.008805,-78.5 1.491372,-5.775 3.293099,-12.075 4.00384,-14 0.71074,-1.925 2.287977,-6.875 3.504971,-11 4.273667,-14.4856 16.815757,-51.5611 19.376469,-57.2785 C 76.835367,998.5433 78,995.47135 78,994.89492 78,993.87695 79.004541,991.38913 90.071078,965 105.32222,928.63232 138.36388,864.5773 159.72228,829.97319 175.58357,804.27531 197.70736,770.58643 207.64442,757 c 1.81021,-2.475 4.58841,-6.3 6.17379,-8.5 3.05638,-4.24129 18.97153,-25.56061 23.18179,-31.05344 3.00456,-3.91983 17.76863,-21.76868 23.87502,-28.86342 7.24775,-8.42085 8.32625,-9.66102 19.66407,-22.61183 12.90207,-14.7376 70.01878,-72.19986 83.0503,-83.55275 27.55713,-24.0074 66.54612,-55.71331 87.33411,-71.02025 22.40746,-16.49941 54.73946,-38.2232 72.03228,-48.39831 3.27158,-1.925 12.3824,-7.37396 20.24627,-12.10879 27.04462,-16.28357 52.7322,-28.89789 56.1648,-27.58068 1.55056,0.59501 2.13255,3.18089 4.1634,18.49875 2.93177,22.11326 6.97798,36.26213 10.57153,36.96685 0.87349,0.17129 3.77896,-3.87622 7.65314,-10.66134 3.43479,-6.0156 6.24508,-11.15913 6.24508,-11.43006 0,-0.27093 1.62998,-3.34833 3.62218,-6.83866 5.48497,-9.60969 20.13008,-36.32091 24.86214,-45.34607 2.307,-4.4 7.92854,-15.2 12.49231,-24 7.57801,-14.61213 24.44821,-45.98122 38.99027,-72.5 3.16683,-5.775 7.33627,-13.425 9.26542,-17 1.92915,-3.575 4.88706,-9.01102 6.57313,-12.08005 1.68606,-3.06902 4.9384,-9.14402 7.2274,-13.5 2.28901,-4.35597 4.54608,-8.38961 5.01572,-8.96365 0.46963,-0.57403 3.28631,-5.74903 6.25927,-11.5 2.97296,-5.75096 6.87684,-13.1563 8.67529,-16.4563 1.79844,-3.3 6.65135,-12.3 10.78424,-20 4.13288,-7.7 10.67391,-19.625 14.53563,-26.5 3.86171,-6.875 8.88656,-15.875 11.16634,-20 12.51269,-22.64033 37.85584,-55.00814 56.21721,-71.799617 17.34092,-15.858275 28.5164,-24.1539 56.31345,-41.801817 12.23193,-7.765864 43.51985,-22.19824 59,-27.215307 18.93464,-6.136656 29.79531,-9.190622 32.66923,-9.186426 1.19308,0.0017 4.79308,-0.619851 8,-1.381319 16.35247,-3.8828169 42.68667,-5.6813517 67.35897,-4.6003945 32.7794,1.4361481 59.2647,6.3516735 88.9718,16.5126315 18.2012,6.225522 25.9128,9.391577 39.5059,16.219477 17.6817,8.881635 34.0519,19.460205 50.2999,32.504212 7.3461,5.897485 29.246,27.216371 37.7501,36.74856 6.2679,7.02565 21.4441,27.90084 21.4441,29.4969 0,0.3501 1.0737,2.06902 2.386,3.81982 2.2854,3.04894 10.8933,17.6379 16.629,28.18328 23.1552,42.57189 34.6758,64.21085 49.2469,92.5 4.1077,7.975 11.6381,22.375 16.7341,32 5.0961,9.625 10.3359,19.64395 11.644,22.26433 1.3082,2.62039 4.6799,8.92039 7.4925,14 7.9961,14.44062 10.3299,18.72178 14.3019,26.23567 2.0352,3.85 4.84,9.025 6.2328,11.5 1.3928,2.475 5.029,9.225 8.0804,15 5.8449,11.06213 14.9236,27.76852 21.4652,39.5 2.1468,3.85 4.8386,9.025 5.9816,11.5 1.1431,2.475 2.8629,5.625 3.8218,7 0.9589,1.375 4.1152,7.225 7.0141,13 2.8988,5.775 7.1609,13.875 9.4714,18 2.3105,4.125 7.7104,14.25 11.9998,22.5 4.2894,8.25 11.4934,21.975 16.009,30.5 4.5155,8.525 11.7203,22.25 16.0106,30.5 4.2903,8.25 9.2337,17.7 10.9852,21 1.7516,3.3 7.1161,13.425 11.9212,22.5 8.1787,15.44657 39.5325,73.48946 44.1664,81.76195 3.4025,6.07423 26.3258,48.11174 30.5721,56.06422 2.1516,4.02939 6.4456,11.67939 9.5422,17 16.7947,28.85617 23.0039,40.88858 24.8807,48.21425 2.1094,8.23411 1.4579,16.39064 -1.6932,21.19776 -4.789,7.30571 -11.0054,10.00824 -51.3957,22.34402 -6.6,2.01573 -15.15,4.70837 -19,5.98363 -11.2122,3.71391 -23.832,6.43417 -29.8492,6.43417 -6.0637,0 -14.7116,-2.77985 -21.061,-6.77002 -10.1404,-6.37266 -20.5615,-21.87775 -39.4727,-58.72998 -4.3141,-8.40682 -11.6416,-21.96503 -18.9965,-35.14946 -2.4087,-4.3178 -6.4189,-11.67554 -8.9116,-16.35054 -2.4926,-4.675 -5.5844,-10.06696 -6.8706,-11.98213 -1.2861,-1.91518 -2.3384,-3.89041 -2.3384,-4.38941 0,-0.49899 -1.3615,-3.12003 -3.0256,-5.82452 -1.6641,-2.7045 -5.3397,-9.27927 -8.168,-14.6106 -2.8283,-5.33134 -6.1918,-11.3719 -7.4744,-13.42347 -1.2826,-2.05157 -2.332,-4.01492 -2.332,-4.363 0,-0.34808 -2.2814,-4.67991 -5.0698,-9.62629 -2.7883,-4.94638 -6.4364,-11.53303 -8.1068,-14.637 -1.6703,-3.10397 -4.852,-9.01858 -7.0702,-13.14358 -2.2183,-4.125 -4.3738,-7.95 -4.79,-8.5 -0.4161,-0.55 -3.7357,-6.85 -7.3769,-14 -3.6411,-7.15 -7.8037,-15.025 -9.2504,-17.5 -2.8145,-4.81534 -3.6545,-6.35761 -19.3353,-35.5 -5.6229,-10.45 -14.2925,-26.425 -19.2657,-35.5 -4.9732,-9.075 -10.1496,-18.525 -11.5031,-21 -1.3535,-2.475 -4.715,-8.775 -7.47,-14 -2.755,-5.225 -5.7156,-10.625 -6.5791,-12 -0.8635,-1.375 -3.2107,-5.65 -5.2159,-9.5 -2.0053,-3.85 -4.7794,-9.025 -6.1647,-11.5 -3.4483,-6.16063 -34.4669,-63.49895 -40.0322,-74 -2.4776,-4.675 -10.4144,-19.45862 -17.6373,-32.8525 C 1258.9097,349.75363 1253,338.56249 1253,338.27831 c 0,-0.28418 -1.518,-3.05055 -3.3732,-6.1475 -1.8553,-3.09695 -5.7406,-10.13081 -8.634,-15.63081 -2.8934,-5.5 -5.5941,-10.45 -6.0016,-11 -0.4076,-0.55 -3.437,-6.175 -6.732,-12.5 -5.0877,-9.76593 -11.4075,-21.39534 -24.9979,-46 -4.9982,-9.04884 -7.6928,-13.59637 -10.6658,-18 -30.1114,-44.60083 -50.5529,-59.80461 -98.5955,-73.33244 -8.6471,-2.43484 -34.577,-5.31822 -44.5,-4.94836 -4.95,0.18451 -10.125,0.37883 -11.5,0.43184 -7.2824,0.28076 -25.8646,4.30134 -35.699,7.72407 -11.88947,4.13801 -29.51639,12.96291 -37.801,18.92506 -14.46305,10.40856 -30.31288,27.47212 -38.61572,41.57282 -2.30811,3.91985 -5.20472,8.70201 -6.43692,10.62701 -1.23219,1.925 -3.31925,5.75 -4.63789,8.5 -5.84529,12.19019 -21.37294,42.4965 -24.33696,47.5 -1.79198,3.025 -9.20828,16.525 -16.48068,30 -13.39341,24.81663 -16.04637,29.6181 -31.21792,56.5 -4.65611,8.25 -10.50953,18.825 -13.00759,23.5 -2.49806,4.675 -8.49565,15.7 -13.32799,24.5 -4.83233,8.8 -10.44786,19.15 -12.47895,23 -2.0311,3.85 -8.36536,15.43997 -14.07614,25.7555 -5.71078,10.31552 -11.77328,21.34052 -13.47223,24.5 -1.69894,3.15947 -5.80049,10.6945 -9.11455,16.7445 -3.31406,6.05 -7.60598,13.925 -9.53761,17.5 -6.75547,12.50287 -27.52648,50.53557 -29.76438,54.5 -3.61414,6.40243 -11.3756,20.41207 -15.51223,28 -2.09886,3.85 -4.81694,8.8 -6.04019,11 -2.29463,4.12689 -6.6742,12.12053 -22.18921,40.5 -8.62183,15.77072 -19.61602,35.53491 -23.91953,43 -1.10974,1.925 -3.68925,6.59609 -5.73225,10.38019 -2.04301,3.7841 -6.99704,12.7841 -11.00896,20 -4.01191,7.2159 -9.00275,16.26981 -11.09075,20.11981 -3.40364,6.27588 -9.35091,17.07764 -16.14315,29.32007 -10.28507,18.53797 -20.56928,35.91173 -25.10874,42.41779 -9.75607,13.98259 -23.04151,23.93188 -38.37438,28.73804 -7.1643,2.24568 -23.0893,2.73231 -30.85545,0.94285 -2.46421,-0.56779 -8.98921,-1.66211 -14.5,-2.43182 -13.44042,-1.87728 -26.90892,-4.39937 -51.01963,-9.55387 -5.5,-1.17582 -11.2375,-2.36785 -12.75,-2.64895 -1.5125,-0.28111 -2.75,-0.8364 -2.75,-1.23397 0,-0.83056 48.52989,-97.71497 79.66901,-159.05014 11.58798,-22.825 23.391,-46.225 26.22894,-52 2.83794,-5.775 6.04687,-12.16415 7.13097,-14.19812 2.17102,-4.07325 2.54069,-6.80188 0.92151,-6.80188 -0.57727,0 -4.51477,3.5601 -8.75,7.91133 -7.48305,7.688 -19.74415,18.53308 -45.28233,40.05275 -29.92461,25.21588 -40.30877,34.79284 -76.0058,70.09755 -28.82759,28.51077 -51.83351,55.31909 -87.69433,102.18837 -26.42234,34.53341 -57.95435,84.47262 -77.82103,123.25 -11.5875,22.61742 -30.63362,62.2831 -32.89136,68.5 -0.69908,1.925 -2.37879,5.975 -3.73268,9 -4.22376,9.4372 -13.58384,34.179 -16.64562,44 -1.11454,3.575 -3.12762,9.65 -4.47352,13.5 -4.57001,13.0727 -6.96418,21.1831 -16.81221,56.9524 -1.6729,6.0762 -4.17445,16.2226 -5.559,22.5476 -1.38455,6.325 -3.08998,13.75 -3.78985,16.5 -2.66418,10.4684 -3.68798,15.2644 -5.01652,23.5 -0.75416,4.675 -2.08168,12.775 -2.95005,18 -0.86838,5.225 -2.24638,13.55 -3.06224,18.5 -2.50313,15.1871 -6.9119,52.5809 -8.01725,68 -1.06722,14.8872 -2.46217,51.6088 -2.81104,74 -0.15814,10.1498 1.47397,50.2683 2.37991,58.5 0.51451,4.675 1.38039,12.55 1.92417,17.5 1.74306,15.867 7.15947,53.3703 9.45982,65.5 0.78229,4.125 2.16329,11.7473 3.06889,16.9385 0.9056,5.1911 1.86822,9.7971 2.13915,10.2355 0.27093,0.4384 0.91891,3.1661 1.43995,6.0615 0.52104,2.8955 1.35283,7.2577 1.84844,9.6938 0.83405,4.0997 0.70404,4.5947 -1.74742,6.6525 -1.45668,1.2228 -9.11265,7.7797 -17.01326,14.5707 -7.90061,6.7911 -16.28532,13.9225 -18.63268,15.8475 -7.15496,5.8676 -31.19954,27.5911 -46.00257,41.5619 -7.7,7.2671 -15.8,14.6973 -18,16.5117 -2.2,1.8143 -6.025,5.1766 -8.5,7.4719 -5.27355,4.8905 -7.431308,5.8447 -8.984593,3.9731 z M 1781.5,1307.152 c -16.8577,-5.5697 -24.1337,-13.615 -58.0175,-64.152 -3.5033,-5.225 -8.3727,-12.2 -10.8211,-15.5 -19.1645,-25.8311 -23.6614,-34.909 -23.6614,-47.7657 0,-17.0389 8.5865,-34.3219 21.3827,-43.0391 15.5352,-10.5832 30.1776,-14.3441 44.2434,-11.3642 10.3631,2.1955 16.83,5.8951 25.4451,14.5568 7.1488,7.1875 11.1767,12.2962 25.413,32.2322 3.2913,4.609 11.3913,15.5926 18,24.4081 17.4065,23.2188 21.8329,30.2415 26.1396,41.4719 2.5535,6.6586 2.8718,8.734 2.8373,18.5 -0.036,10.2288 -0.2614,11.4741 -3.2138,17.7626 -7.9333,16.8977 -21.846,28.3009 -40.1239,32.8867 -8.9991,2.2577 -20.7944,2.2589 -27.6234,0 z"
       id="path9" />
  </g>
</svg>
